# xmcd
#
# Track frame offsets: 
#        150
#        13479
#        26258
#        43786
#        60405
#        73836
#        89217
#        102210
#        118506
#        128389
#        142908
#        156069
#        168955
#        182243
#
# Disc length: 2624 seconds
#
# Revision: 0
# Processed by: cddbd v1.5.2PL0 Copyright (c) Steve Scherf et al.
# Submitted via: ExactAudioCopy v0.99pb5
#
DISCID=b90a3e0e
DTITLE=Huey Lewis and the News - Soulsville
DYEAR=2010
DGENRE=Soul
TTITLE0=Don't Fight It
TTITLE1=Got to Get You Off My Mind
TTITLE2=Free
TTITLE3=Respect Yourself
TTITLE4=Cry to Me
TTITLE5=Just One More Day
TTITLE6=Never Found a Girl
TTITLE7=Soulsville
TTITLE8=Little Sally Walker
TTITLE9=I Want To (Do Everything for You)
TTITLE10=Just the One (I've Been Looking For)
TTITLE11=Don't Let the Green Grass Fool You
TTITLE12=Never Like This Before
TTITLE13=Grab This Thing
EXTD=
EXTT0=
EXTT1=
EXTT2=
EXTT3=
EXTT4=
EXTT5=
EXTT6=
EXTT7=
EXTT8=
EXTT9=
EXTT10=
EXTT11=
EXTT12=
EXTT13=
PLAYORDER=
